<?xml version="1.0" encoding="utf-8"?>
<!-- Generator: Adobe Illustrator 24.0.1, SVG Export Plug-In . SVG Version: 6.00 Build 0)  -->
<svg version="1.1" id="Layer_1" xmlns="http://www.w3.org/2000/svg" xmlns:xlink="http://www.w3.org/1999/xlink" x="0px" y="0px"
	 viewBox="0 0 309.91 249.65" enable-background="new 0 0 309.91 249.65" xml:space="preserve">
<g>
	<path fill="#FFFFFF" d="M74.18,50.18c-0.47-0.36-0.91-0.75-1.41-1.08c-1.18-0.77-2.39-0.73-3.55,0.07
		c-0.65,0.45-1.18,1.02-1.58,1.71c-0.59,1.02-0.58,2.05,0.01,3.08c0.3,0.52,0.71,0.96,1.14,1.37c5.29,5.11,10.58,10.22,15.86,15.32
		c0.48,0.47,0.99,0.92,1.61,1.2c0.78,0.35,1.58,0.42,2.38,0.07c1.29-0.57,2.19-1.54,2.68-2.85c0.3-0.81,0.18-1.61-0.24-2.37
		c-0.33-0.6-0.8-1.07-1.28-1.54c-2.87-2.78-5.74-5.55-8.61-8.33c-0.43-0.42-0.87-0.83-1.25-1.28c-1.46-1.74-2.19-3.71-1.71-6.01
		c0.35-1.68,1.31-2.99,2.58-4.09c1.67-1.45,3.42-1.61,5.36-0.53c0.99,0.55,1.82,1.29,2.63,2.07c3.17,3.06,6.33,6.13,9.5,9.18
		c0.4,0.39,0.82,0.77,1.28,1.08c1.18,0.79,2.49,0.76,3.65-0.05c0.65-0.45,1.19-1.02,1.6-1.7c0.67-1.09,0.67-2.19-0.02-3.27
		c-0.24-0.37-0.52-0.73-0.84-1.04c-3.75-3.63-7.5-7.27-11.29-10.87c-1.36-1.29-2.9-2.33-4.66-3.02c-2.26-0.89-4.51-0.89-6.72,0.13
		c-4.83,2.22-7.65,7.37-6.95,12.62C74.29,50.08,74.23,50.12,74.18,50.18z M93.05,231.68c0.61,0.05,0.98,0.08,1.35,0.12
		c3.41,0.39,6.81,0.8,10.22,1.16c6.08,0.65,12.15,1.33,18.24,1.91c4.63,0.44,9.28,0.76,13.92,1.13c0.48,0.04,0.97-0.01,1.45,0.03
		c0.55,0.04,0.94-0.21,1.22-0.64c0.22-0.34,0.4-0.72,0.53-1.1c1.12-3.19,2.27-6.38,3.3-9.6c0.77-2.41,1.56-4.81,2.37-7.2
		c0.58-1.72,1.23-3.43,1.8-5.16c0.78-2.36,1.5-4.74,2.27-7.1c0.6-1.84,1.27-3.65,1.85-5.5c0.98-3.12,1.91-6.25,2.85-9.39
		c0.15-0.51,0.39-0.72,0.93-0.69c2.61,0.13,5.22-0.15,7.83-0.17c4.67-0.03,9.31-0.46,13.96-0.76c3.31-0.21,6.61-0.56,9.93-0.66
		c0.81-0.03,1.39-0.42,1.56-1.18c0.11-0.47,0.34-0.72,0.69-0.93c1.89-1.13,3.39-2.74,5.04-4.15c1.91-1.64,3.8-3.32,5.69-4.99
		c2.44-2.15,4.87-4.33,7.33-6.46c2.38-2.06,4.68-4.23,7.04-6.32c2-1.77,3.96-3.58,5.95-5.36c1.82-1.63,3.67-3.27,5.39-5.01
		c0.67-0.68,0.92-0.67,1.59-0.05c1.21,1.11,2.51,2.1,3.85,3.02c2.12,1.45,4.09,3.09,6.25,4.49c1.15,0.75,2.16,1.72,3.33,2.43
		c2.44,1.5,4.61,3.39,7.06,4.87c1.2,0.73,2.28,1.67,3.44,2.47c2.63,1.82,5.27,3.61,7.91,5.41c2.18,1.49,4.37,2.96,6.51,4.5
		c0.54,0.39,1.01,0.96,0.75,1.79c-0.17,0.54-0.12,1.11-0.04,1.67c0.36,2.62,1.96,3.73,4.57,3.26c4.32-0.78,8.64-1.56,12.97-2.28
		c1.32-0.22,2.68-0.2,3.99,0.23c2.98,0.99,5.04,4.41,4.55,7.54c-0.22,1.43-0.95,2.48-2.22,3.17c-0.79,0.43-1.62,0.74-2.51,0.9
		c-3.74,0.67-7.47,1.33-11.21,2.01c-1.5,0.28-3.03,0.4-4.48,0.89c-1.58,0.52-2.37,1.7-2.26,3.31c0.03,0.48,0.11,0.97,0.24,1.43
		c0.48,1.73,1.58,2.53,3.37,2.48c0.48-0.02,0.97-0.07,1.44-0.15c4.51-0.79,9.02-1.58,13.52-2.38c2.1-0.37,4.14-0.91,6.01-1.98
		c2.37-1.35,3.9-3.31,4.36-6.04c0.25-1.52,0.17-3.05-0.14-4.56c-0.74-3.58-2.5-6.43-5.87-8.12c-0.12-0.06-0.37-0.06-0.33-0.32
		c0.39-0.18,0.8-0.2,1.2-0.3c1.81-0.44,2.78-1.63,2.71-3.32c-0.01-0.37-0.09-0.74-0.16-1.11c-0.41-2.07-1.78-3.08-3.88-2.74
		c-3.82,0.62-7.63,1.31-11.44,1.96c-0.69,0.12-1.38,0.36-2.24,0.31c0.3-0.38,0.52-0.63,0.7-0.91c0.37-0.55,0.79-1.06,1-1.72
		c0.46-1.44,0.09-2.65-0.73-3.89c-0.78-1.17-1.79-1.58-3.08-1.57c-0.48,0.01-0.97,0.07-1.45,0.12c-0.21,0.02-0.43,0.14-0.6-0.12
		c0.23-0.3,0.6-0.27,0.9-0.35c4.38-1.16,8.77-2.29,13.16-3.44c0.72-0.19,1.44-0.39,2.08-0.77c1.05-0.62,1.63-1.51,1.59-2.75
		c-0.08-2.41-1.23-4.88-4.98-3.91c-6.55,1.7-13.09,3.42-19.63,5.13c-0.9,0.23-1.82,0.4-2.67,0.78c-1.03,0.47-1.83,1.17-2.08,2.32
		c-0.66,3.07,1.66,5.38,4.7,4.66c1.99-0.47,3.96-1.01,5.94-1.53c0.25-0.06,0.48-0.18,0.75-0.05c-2.6,2.22-5.52,4.1-7.32,7.19
		c-1.22-0.84-2.44-1.67-3.65-2.52c-1.15-0.81-2.25-1.71-3.45-2.46c-2.39-1.49-4.58-3.28-6.96-4.8c-1.46-0.94-2.84-2.02-4.29-2.99
		c-2.13-1.43-4.24-2.89-6.36-4.34c-1.38-0.95-2.72-1.96-4.15-2.83c-2.31-1.41-4.46-3.05-6.79-4.44c-1.84-1.11-3.61-2.31-5.64-3.09
		c-0.49-0.19-0.79-0.18-1.18,0.19c-1.56,1.48-3.16,2.92-4.75,4.37c-0.52,0.47-1.16,0.84-1.6,1.37c-1.26,1.51-2.91,2.59-4.26,4.02
		c-1.12,1.19-2.45,2.16-3.6,3.34c-0.95,0.98-2.12,1.75-3.04,2.74c-1.29,1.39-2.75,2.6-4.11,3.9c-1.63,1.56-3.29,3.1-4.95,4.63
		c-1.9,1.76-3.75,3.58-5.59,5.41c-1.16,1.15-2.5,2.11-3.51,3.42c-0.1,0.13-0.19,0.34-0.5,0.16c-0.3-1.4-0.65-2.84-0.95-4.29
		c-0.18-0.84-0.57-1.63-0.62-2.48c-0.1-1.54-0.62-2.99-1.08-4.42c-0.85-2.65-1.48-5.36-2.49-7.96c-0.67-1.73-1.23-3.49-1.91-5.21
		c-0.61-1.56-1.4-3.05-1.97-4.62c-0.91-2.49-2.23-4.78-3.35-7.17c-0.77-1.65-1.66-3.24-2.57-4.81c-0.89-1.54-1.81-3.07-2.8-4.53
		c-1.66-2.45-3.4-4.85-5.4-7.05c-1.17-1.29-2.3-2.61-3.68-3.69c-0.45-0.35-0.85-0.75-1.41-1.26c0.54,0.06,0.88,0.1,1.21,0.13
		c2.26,0.25,4.52,0.53,6.78,0.76c4.94,0.5,9.88,0.98,14.81,1.45c5.27,0.5,10.55,0.98,15.83,1.47c0.86,0.08,1.7,0.14,2.45-0.47
		c0.24-0.2,0.62-0.25,0.93-0.35c1.17-0.37,2.35-0.7,3.51-1.12c3.07-1.12,6.14-2.26,9.2-3.43c3.65-1.39,7.3-2.77,10.91-4.25
		c3.69-1.5,7.39-2.97,11.13-4.32c2.09-0.76,4.18-1.52,6.19-2.53c0.45,0.38,0.91,0.76,1.37,1.14c0.24,0.2,0.35,0.38,0.33,0.75
		c-0.06,1.18,0.85,1.95,1.94,1.54c0.67-0.25,1.12-0.06,1.67,0.19c3.2,1.47,6.57,2.01,10.03,1.38c5.93-1.08,11.03-3.84,15.17-8.2
		c3.86-4.06,5.3-8.97,4.56-14.52c-0.45-3.41-1.68-6.56-3.33-9.54c-1.95-3.52-3.94-7.01-5.92-10.52c-0.28-0.49-0.58-0.96-0.98-1.36
		c-0.96-0.94-2.06-1.27-3.38-0.85c-0.61,0.19-1.17,0.48-1.72,0.79c-9.59,5.42-19.18,10.84-28.77,16.26
		c-0.45,0.26-0.91,0.52-1.31,0.84c-1.29,1.03-1.67,2.33-1.12,3.89c0.17,0.49,0.42,0.95,0.68,1.41c1.84,3.28,3.69,6.56,5.55,9.83
		c0.77,1.36,1.63,2.67,2.58,3.93c0.17,0.22,0.44,0.4,0.44,0.78c-1.15,0.52-2.34,0.91-3.53,1.33c-2.1,0.75-4.07,1.81-6.18,2.57
		c-2.59,0.93-5.14,1.97-7.7,2.97c-3.19,1.24-6.4,2.42-9.55,3.77c-1.74,0.75-3.51,1.42-5.33,1.98c-2.06,0.64-4.14,1.19-6.15,2
		c-1.15,0.47-2.32,0.89-3.67,0.73c-3.56-0.41-7.13-0.72-10.69-1.05c-4.57-0.42-9.14-0.79-13.71-1.21
		c-5.91-0.54-11.82-0.99-17.74-1.33c-1.17-0.07-2.34-0.17-3.48-0.25c-0.04-0.33,0.17-0.39,0.3-0.5c1-0.84,2.04-1.68,2.75-2.77
		c1.8-2.75,3.25-5.67,3.83-8.96c0.42-2.4,0.69-4.83,0.43-7.24c-0.35-3.3-1.12-6.52-2.82-9.43c-0.56-0.96-1.15-1.91-2.05-2.6
		c-0.35-0.27-0.74-0.41-1.11-0.08c-0.35,0.31-0.16,0.66,0,1.01c1.28,2.93,2.32,5.92,2.77,9.13c0.59,4.18,0.08,8.2-1.56,12.04
		c-1.1,2.57-2.67,4.89-5.01,6.54c-1.4,0.99-2.94,1.69-4.71,1.81c-3.06,0.21-5.49-1.15-7.64-3.08c-1.18-1.06-2.03-2.45-2.85-3.82
		c-0.92-1.54-1.48-3.24-1.93-4.94c-0.43-1.61-0.77-3.27-0.78-4.96c-0.01-2.17,0.19-4.33,0.66-6.45c0.63-2.85,1.89-5.44,3.82-7.58
		c1.52-1.68,3.42-2.96,5.71-3.49c0.36-0.08,0.67-0.25,0.71-0.61c0.07-0.57,0.44-0.72,0.89-0.83c0.91-0.22,1.74-0.65,2.61-0.97
		c2.29-0.85,3.84-2.6,5.37-4.37c0.39-0.45,0.71-0.96,0.99-1.48c0.45-0.84,0.15-1.64-0.71-2.04c-0.81-0.37-1.66-0.03-1.96,0.84
		c-0.1,0.29-0.25,0.53-0.41,0.79c-1.24,1.97-2.9,3.56-4.82,4.84c-0.9,0.6-1.79,1.54-3.1,0.98c-0.15-0.06-0.37,0-0.55,0.04
		c-1.77,0.49-3.39,1.29-4.82,2.45c-2.12,1.71-3.65,3.9-4.88,6.29c-1.06,2.06-1.79,4.25-2.2,6.54c-0.6,3.42-0.52,6.82,0.21,10.22
		c0.22,1.02,0.62,1.99,0.86,2.99c0.57,2.41,1.86,4.45,3.3,6.37c1.46,1.94,3.32,3.47,5.56,4.52c0.52,0.24,1.11,0.4,1.71,0.98
		c-1.8,0.11-3.4,0.42-5.03,0.34c-0.82-0.04-1.64,0.01-2.46,0.07c-2.71,0.21-5.42,0.47-8.14,0.61c-3.61,0.18-7.21,0.55-10.82,0.72
		c-3.42,0.17-6.85,0.4-10.25,0.79c-0.46,0.05-0.67-0.1-0.85-0.5c-0.36-0.82-0.79-1.6-1.15-2.42c-1.31-3-2.79-5.92-4.16-8.9
		c-1.34-2.9-2.67-5.81-4.08-8.69c-0.36-0.74-0.79-1.45-1.07-2.21c-0.84-2.23-2.09-4.27-3.05-6.45c-0.66-1.5-1.55-2.9-2.18-4.4
		c-1.06-2.51-2.39-4.88-3.7-7.26c-0.23-0.43-0.37-0.78-0.14-1.23c0.33-0.65,0.16-1.24-0.31-1.75c-0.21-0.23-0.34-0.47-0.34-0.79
		c0.02-0.96-0.55-1.5-1.36-1.84c-0.26-0.11-0.42-0.21-0.53-0.5c-0.38-1.08-1.22-1.75-2.16-2.33c-6.13-3.75-12.26-7.51-18.39-11.26
		c-0.51-0.31-1.04-0.59-1.61-0.77c-1.41-0.44-2.56-0.03-3.5,1.06c-0.37,0.43-0.66,0.91-0.88,1.42c-0.62,1.42-0.34,2.69,0.78,3.77
		c0.46,0.44,1,0.78,1.54,1.11c3.43,2.1,6.86,4.2,10.29,6.3c2.61,1.59,5.21,3.19,7.81,4.78c0.97,0.6,1.99,1.05,3.16,0.83
		c0.54-0.1,0.89-0.06,1.09,0.55c0.13,0.4,0.63,0.43,0.95,0.67c-0.35,0.49-0.87,0.95-0.33,1.58c0.67,0.79,1.3,0.2,1.93-0.19
		c0.1,0.22,0.17,0.34,0.22,0.48c0.64,1.95,1.51,3.81,2.35,5.67c1.36,3.02,2.59,6.09,4,9.09c1.28,2.72,2.41,5.52,3.71,8.24
		c1.37,2.85,2.63,5.75,3.97,8.62c0.69,1.48,1.26,3.02,1.97,4.5c0.75,1.58,1.55,3.14,2.23,4.75c0.2,0.48,0.42,0.96,0.78,1.35
		c0.56,0.6,1.37,0.87,2.02,0.5c0.59-0.34,1.2-0.37,1.82-0.41c0.56-0.04,1.12-0.02,1.68-0.06c2.57-0.18,5.13-0.38,7.69-0.57
		c0.86-0.06,1.71-0.21,2.56-0.19c3.1,0.08,6.17-0.42,9.25-0.6c2.49-0.15,4.98-0.41,7.47-0.57c1.75-0.11,3.49-0.19,5.24-0.33
		c1.1-0.09,2.21-0.08,3.31-0.21c0.02,0.14,0.06,0.22,0.04,0.28c-0.09,0.32-0.17,0.65-0.29,0.96c-1.38,3.42-2.18,6.97-2.22,10.66
		c-0.06,5.11,0.09,10.21,1.01,15.26c0.26,1.42,0.5,2.86,0.8,4.27c0.34,1.59,0.56,3.21,1.01,4.79c0.53,1.9,1.12,3.78,1.62,5.69
		c0.84,3.16,2.09,6.18,3.2,9.25c0.58,1.6,1.33,3.14,2.05,4.67c0.54,1.14,1.03,2.32,1.79,3.32c0.48,0.62,0.52,1.17,0.24,1.84
		c-0.49,1.16-0.92,2.36-1.4,3.52c-1.23,2.92-2.13,5.95-3.25,8.9c-1.08,2.84-2.15,5.68-3.06,8.59c-1.3,4.14-3.03,8.15-4.31,12.3
		c-0.43,1.39-0.99,2.72-1.47,4.09c-0.69,1.96-1.35,3.94-2.06,5.89c-0.35,0.97-0.38,0.93-1.43,0.75c-2.17-0.35-4.33-0.71-6.51-1
		c-3.25-0.43-6.5-0.82-9.76-1.22c-2.77-0.34-5.55-0.69-8.32-0.98c-3.26-0.35-6.53-0.63-9.79-0.97c-3.78-0.39-7.56-0.82-11.33-1.22
		c-0.33-0.04-0.68-0.07-0.99,0.11c-0.44,0.26-0.91,0.25-1.4,0.29c-0.7,0.06-1.43,0.16-1.91,0.77c-0.62,0.77-1.11,1.61-1.09,2.63
		c0.03,1.46,0.2,2.92,0.74,4.27c0.54,1.34,1.31,2.58,2.13,3.79c0.84,1.25,1.94,2.15,3.18,2.92c2.06,1.27,4.11,0.52,4.94-1.75
		c0.19-0.53,0.28-1.08,0.34-1.64c0.16-1.46-0.36-2.79-0.77-4.15C94.55,234.07,93.89,232.95,93.05,231.68z M131.01,36.44
		c0.38,1.07,0.77,2.14,1.14,3.22c0.18,0.53,0.33,1.07,0.44,1.62c0.64,3.14-0.46,5.57-3.23,7.19c-0.19,0.11-0.39,0.23-0.59,0.32
		c-3.37,1.52-6.88,2.19-10.55,1.69c-1.52-0.2-2.88,0.59-3.22,2.22c-0.34,1.65,0.61,3.15,2.21,3.46c0.76,0.15,1.54,0.25,2.33,0.27
		c3.28,0.09,6.44-0.54,9.54-1.55c2.24-0.73,4.37-1.7,6.25-3.15c2.73-2.12,4.36-4.85,4.57-8.35c0.15-2.43-0.34-4.74-1.13-7.01
		c-2.48-7.14-4.97-14.27-7.45-21.41c-0.18-0.53-0.38-1.05-0.68-1.52c-0.72-1.11-1.73-1.59-3.05-1.41c-0.52,0.07-1.02,0.19-1.51,0.4
		c-1.86,0.8-2.59,2.31-2.07,4.27c0.1,0.39,0.33,0.74,0.29,1.23c-2.77-2.18-5.88-2.57-9.14-1.76c-7.03,1.75-9.82,7.06-9.87,12.08
		c-0.04,4.12,1.2,7.87,3.58,11.2c3.74,5.23,9.81,6.84,15.65,4.2c3.02-1.37,5.23-3.53,6.13-6.83
		C130.73,36.64,130.79,36.51,131.01,36.44z M279.2,236.01c-1.97,0.23-3.74,0.4-5.53,0.28c-2.75-0.18-4.69-1.53-5.67-4.15
		c-0.49-1.31-0.67-2.68-0.69-4.06c-0.04-2.78,0.31-5.5,1.41-8.09c0.24-0.55,0.41-1.12,0.26-1.74c-0.25-1.06-1.22-1.94-2.35-2.13
		c-1.36-0.24-2.3,0.15-2.98,1.24c-0.4,0.64-0.63,1.34-0.87,2.05c-1.11,3.27-1.27,6.64-1.13,10.06c0.08,1.91,0.37,3.79,0.96,5.6
		c1.17,3.59,3.34,6.3,6.96,7.66c2.45,0.92,5.01,1.07,7.6,0.88c2.57-0.19,5.13-0.41,7.7-0.58c3.76-0.26,7.52-0.45,11.27-0.76
		c1.45-0.12,2.91-0.11,4.35-0.35c1.88-0.31,2.84-1.3,2.95-3.2c0.02-0.41-0.03-0.82-0.09-1.22c-0.27-1.83-1.48-2.91-3.34-2.97
		c-0.43-0.01-0.86,0-1.56,0c1.52-1.07,2.46-2.28,3.13-3.71c0.84-1.8,1.13-3.69,1.07-5.66c-0.17-5.4-3.32-9.72-8.42-11.5
		c-3.3-1.16-6.67-1.13-10.03-0.4c-6.5,1.41-11.16,6.25-10.66,13.48C273.82,230.68,275.48,233.86,279.2,236.01z M181.99,21.4
		c0.24-0.57,0.37-0.88,0.5-1.18c1.62-3.64,3.25-7.27,4.87-10.91c0.2-0.44,0.4-0.89,0.52-1.35c0.29-1.16,0.12-2.23-0.8-3.08
		c-0.73-0.67-1.59-1.11-2.55-1.31c-1.5-0.31-2.62,0.19-3.43,1.49c-0.27,0.44-0.49,0.92-0.7,1.39c-3.81,8.49-7.61,16.98-11.42,25.47
		c-0.94,2.11-1.89,4.21-2.82,6.32c-0.35,0.79-0.63,1.6-0.47,2.49c0.28,1.51,1.37,2.23,2.69,2.71c1.83,0.68,3.19,0.2,4.18-1.48
		c0.26-0.44,0.48-0.9,0.8-1.48c0.26,1.56,0.69,2.89,1.49,4.07c2.22,3.27,5.42,4.93,9.26,5.33c3.8,0.4,7.01-1.03,9.7-3.67
		c2.73-2.68,4.36-6,5.38-9.65c0.63-2.26,0.8-4.55,0.33-6.86c-0.94-4.62-3.81-7.54-8.14-9.14c-1.97-0.72-3.98-0.87-6.04-0.46
		C184.23,20.34,183.23,20.8,181.99,21.4z M270.26,125.12c-3.93,0.16-7.83,1.48-11.16,4.21c-3.24,2.65-4.92,6.12-4.88,10.34
		c0.04,3.97,1.3,7.55,3.68,10.69c2.77,3.63,6.56,5.34,11.07,5.21c3.88-0.11,7.45-1.37,10.58-3.7c3.32-2.46,5.22-5.77,5.45-9.94
		c0.22-4.1-0.99-7.81-3.33-11.13C279.02,127.01,275.27,125.16,270.26,125.12z M51.18,155.49c0.34-0.15,0.64,0.06,0.95,0.11
		c2.49,0.37,4.05-0.89,4.21-3.4c0.01-0.19,0.01-0.37,0.01-0.56c-0.01-1.16-0.56-1.97-1.57-2.51c-0.64-0.34-1.33-0.49-2.02-0.62
		c-4.79-0.88-9.58-1.77-14.38-2.61c-1.77-0.31-3.56-0.36-5.34-0.01c-3.41,0.66-5.59,2.8-6.93,5.89c-0.81,1.86-1.28,3.81-1.5,5.82
		c-0.33,3.06-0.21,6.11,0.55,9.11c0.47,1.84,2.36,2.8,4.11,2.17c1.13-0.41,1.7-1.3,1.57-2.52c-0.04-0.37-0.12-0.74-0.2-1.1
		c-0.46-1.9-0.66-3.82-0.53-5.77c0.1-1.49,0.33-2.96,0.95-4.34c0.72-1.59,1.97-2.36,3.7-2.42c0.79-0.02,1.56,0.09,2.33,0.22
		c0.95,0.16,0.96,0.17,0.8,1.14c-0.02,0.11-0.05,0.22-0.07,0.33c-0.58,3.04-1.04,6.1-1.14,9.2c-0.06,1.76,0.05,3.5,0.57,5.2
		c0.5,1.64,1.4,3,2.93,3.79c3.27,1.7,6.51,1.72,9.59-0.47c2.32-1.65,3.63-3.99,4.3-6.73c0.92-3.78,0.28-7.1-2.8-9.73
		C51.22,155.65,51.21,155.56,51.18,155.49z M44.5,102.24c-0.74-0.25-1.22-0.44-1.72-0.57c-1.75-0.47-2.99,0.04-3.83,1.62
		c-1.24,2.33-0.89,4.3,1.82,5.43c6.93,2.89,13.85,5.8,20.78,8.69c3.22,1.34,4.6-0.43,5.27-2.64c0.04-0.14,0.08-0.29,0.11-0.43
		c0.26-1.21-0.09-2.21-1.02-3.01c-0.48-0.42-1.06-0.69-1.64-0.93c-3.22-1.35-6.45-2.69-9.66-4.05c-1.13-0.48-2.28-0.9-3.36-1.5
		c-3.76-2.12-4.85-6.43-2.14-10.37c1-1.46,2.48-1.96,4.22-1.69c1.07,0.16,2.09,0.5,3.09,0.92c2.33,0.99,4.66,1.96,6.99,2.93
		c2.09,0.87,4.18,1.76,6.29,2.58c1.17,0.46,2.35,0.48,3.38-0.38c2.48-2.07,2.05-5.37-0.86-6.69c-0.1-0.05-0.21-0.09-0.31-0.13
		c-4.35-1.82-8.71-3.65-13.06-5.47c-1.48-0.62-2.99-1.14-4.58-1.37c-2.71-0.38-5.35-0.16-7.45,1.81c-3.01,2.81-4.34,6.34-4.05,10.46
		C42.88,99.14,43.51,100.64,44.5,102.24z M35.88,206.59c0.53-0.04,1.4-0.02,2.24-0.16c5.15-0.86,8.77-3.7,10.78-8.52
		c1.54-3.71,1.86-7.57,1.23-11.52c-0.25-1.59-0.7-3.12-1.44-4.56c-0.46-0.89-1.1-1.57-2.11-1.87c-2.04-0.61-3.72,0.88-3.31,2.97
		c0.07,0.36,0.18,0.72,0.32,1.06c1.22,2.88,1.36,5.87,0.79,8.89c-0.52,2.71-1.87,4.85-4.56,5.92c-0.9,0.36-1.85,0.52-2.83,0.6
		c-1.02,0.08-0.98,0.01-0.89-0.83c0.15-1.45,0.3-2.89,0.45-4.34c0.43-4.19,0.86-8.38,1.28-12.57c0.04-0.37,0.07-0.75,0.03-1.12
		c-0.13-1.32-0.73-1.89-2.04-2.09c-1.64-0.25-3.27-0.2-4.9,0.05c-3.71,0.56-6.77,2.21-8.9,5.38c-1.32,1.96-1.95,4.18-2.16,6.51
		c-0.47,5.14,1.11,9.49,5.17,12.8C28.09,205.68,31.7,206.53,35.88,206.59z M211.41,58.94c0.2-0.56,0.32-0.91,0.45-1.26
		c2.07-5.7,4.15-11.4,6.22-17.1c0.79-2.18,0.52-3.65-1.94-5.16c-1.44-0.88-3.03-0.5-4.04,0.87c-0.41,0.54-0.64,1.17-0.85,1.81
		c-2.53,7.63-5.07,15.26-7.59,22.89c-0.24,0.72-0.6,1.18-1.33,1.48c-2.06,0.85-4.09,1.78-6.13,2.68c-0.58,0.26-1.15,0.52-1.64,0.94
		c-1.56,1.34-1.63,3.26-0.16,4.68c0.66,0.63,1.42,1.12,2.33,1.24c1.03,0.14,1.99-0.25,2.9-0.66c10.89-4.96,21.78-9.94,32.67-14.91
		c0.58-0.27,1.13-0.58,1.57-1.05c0.78-0.85,1.15-1.84,0.81-2.98c-0.41-1.41-2.58-2.95-4.16-2.54c-0.77,0.2-1.48,0.49-2.18,0.83
		C222.77,53.42,217.19,56.14,211.41,58.94z M25.67,238.39C25.67,238.38,25.67,238.38,25.67,238.39c4.43,0.18,8.87,0.37,13.3,0.55
		c1.3,0.05,2.61,0.11,3.91,0.13c2.54,0.04,3.88-1.16,3.99-3.63c0.3-6.89,0.58-13.79,0.86-20.69c0.02-0.41,0.03-0.82,0-1.23
		c-0.15-1.66-1.16-2.64-2.82-2.76c-0.33-0.03-0.67-0.02-1.01-0.01c-1.42,0.08-2.37,0.9-2.62,2.3c-0.1,0.59-0.15,1.18-0.18,1.78
		c-0.19,4.77-0.36,9.54-0.54,14.32c-0.02,0.48-0.07,0.97-0.08,1.45c-0.01,0.45-0.14,0.64-0.66,0.62
		c-5.33-0.23-10.66-0.42-15.99-0.63c-5.11-0.2-10.21-0.4-15.32-0.59c-0.3-0.01-0.6-0.01-0.89,0.02c-1.49,0.12-2.48,0.95-2.87,2.4
		c-0.13,0.47-0.19,0.95-0.19,1.43c-0.01,2.42,1.14,3.67,3.56,3.79c3.54,0.17,7.08,0.29,10.62,0.44
		C21.05,238.18,23.36,238.28,25.67,238.39z M36.54,127.71c-0.85,0.04-1.43-0.26-2.05-0.34c-1.77-0.25-3.02,0.38-3.65,2.02
		c-1.02,2.65-0.27,4.48,2.5,5.23c2.8,0.75,5.58,1.56,8.37,2.33c4.58,1.27,9.16,2.55,13.75,3.77c2,0.53,3.43-0.28,4.16-2.2
		c1.03-2.73,0.16-4.47-2.65-5.27c-2.68-0.76-5.37-1.47-8.04-2.25c-1.71-0.5-3.46-0.84-5.12-1.53c-2.29-0.95-3.65-2.63-4.01-5.09
		c-0.14-0.96-0.11-1.93,0.04-2.9c0.15-0.99,0.42-1.97,0.39-2.99c-0.05-1.42-0.71-2.28-2.06-2.72c-0.65-0.21-1.32-0.25-1.99-0.22
		c-1.15,0.05-1.89,0.61-2.16,1.74c-0.41,1.76-0.51,3.54-0.22,5.33C34.1,124.56,34.99,126.21,36.54,127.71z M301.24,154.89
		c-2.15,0.02-3.78,1.18-4.08,3.08c-0.29,1.81,0.22,3.48,1.41,4.89c1.64,1.95,5.81,0.77,6.49-1.4c0.04-0.14,0.07-0.29,0.1-0.44
		c0.29-1.78-0.13-3.41-1.19-4.85C303.3,155.29,302.36,154.87,301.24,154.89z M43.74,63.36c-0.03,2.72,2.63,4.75,4.89,4.13
		c1.62-0.44,2.51-1.66,3.19-3.07c1.33-2.79-0.44-5.65-3.55-5.78c-0.61-0.02-1.19,0.04-1.71,0.39
		C44.87,60.15,43.97,61.74,43.74,63.36z M154.18,103.8c-0.02-0.13-0.04-0.35-0.08-0.57c-0.4-2.24-1.04-4.41-2-6.46
		c-0.5-1.07-1.09-2.11-2.13-2.79c-0.39-0.26-0.77-0.44-1.24-0.39c-0.54,0.06-0.83,0.54-0.47,0.94c0.73,0.84,1.07,1.84,1.45,2.84
		c0.45,1.17,0.9,2.35,1.11,3.6c0.19,1.14,0.36,2.28,0.62,3.4c0.18,0.79,0.81,1.2,1.46,1.1C153.63,105.35,154.19,104.68,154.18,103.8
		z M146.41,103.61c-0.03-0.19-0.07-0.41-0.11-0.63c-0.38-1.79-1.02-3.49-1.81-5.12c-0.46-0.96-1.13-1.84-1.95-2.57
		c-0.23-0.2-0.49-0.38-0.79-0.13c-0.29,0.23-0.28,0.55-0.09,0.8c0.87,1.18,1.04,2.59,1.38,3.95c0.16,0.61,0.28,1.23,0.41,1.85
		c0.17,0.8,0.08,1.64,0.43,2.41c0.34,0.74,0.78,1.01,1.48,0.88C145.9,104.95,146.41,104.27,146.41,103.61z M151,88
		c0.15-0.04,0.4-0.1,0.65-0.16c1.48-0.36,2.53-1.33,3.51-2.4c0.44-0.48,0.82-0.98,0.96-1.61c0.15-0.7-0.35-1.52-0.98-1.67
		c-0.64-0.15-1.21,0.18-1.41,0.94c-0.28,1.03-0.78,1.87-1.52,2.65c-0.5,0.52-1.13,0.83-1.64,1.3c-0.19,0.17-0.51,0.24-0.41,0.57
		C150.27,87.96,150.58,88,151,88z"/>
	<path fill="#090807" d="M93.05,231.68c0.84,1.27,1.5,2.38,1.88,3.64c0.41,1.35,0.92,2.68,0.77,4.15c-0.06,0.56-0.15,1.11-0.34,1.64
		c-0.82,2.28-2.88,3.02-4.94,1.75c-1.24-0.77-2.34-1.67-3.18-2.92c-0.81-1.22-1.59-2.45-2.13-3.79c-0.54-1.35-0.71-2.81-0.74-4.27
		c-0.02-1.02,0.47-1.86,1.09-2.63c0.49-0.61,1.21-0.71,1.91-0.77c0.49-0.04,0.96-0.03,1.4-0.29c0.3-0.18,0.65-0.14,0.99-0.11
		c3.78,0.41,7.55,0.83,11.33,1.22c3.26,0.34,6.53,0.62,9.79,0.97c2.78,0.3,5.55,0.65,8.32,0.98c3.25,0.4,6.51,0.78,9.76,1.22
		c2.17,0.29,4.34,0.64,6.51,1c1.05,0.17,1.07,0.21,1.43-0.75c0.71-1.96,1.37-3.93,2.06-5.89c0.48-1.37,1.04-2.7,1.47-4.09
		c1.28-4.16,3.01-8.16,4.31-12.3c0.91-2.91,1.99-5.75,3.06-8.59c1.12-2.96,2.03-5.99,3.25-8.9c0.49-1.16,0.91-2.35,1.4-3.52
		c0.29-0.67,0.24-1.22-0.24-1.84c-0.77-1-1.26-2.19-1.79-3.32c-0.73-1.54-1.48-3.08-2.05-4.67c-1.11-3.07-2.36-6.08-3.2-9.25
		c-0.51-1.9-1.09-3.79-1.62-5.69c-0.44-1.58-0.67-3.2-1.01-4.79c-0.3-1.41-0.54-2.84-0.8-4.27c-0.91-5.06-1.07-10.15-1.01-15.26
		c0.04-3.69,0.84-7.24,2.22-10.66c0.12-0.31,0.2-0.64,0.29-0.96c0.02-0.06-0.02-0.14-0.04-0.28c-1.09,0.13-2.2,0.12-3.31,0.21
		c-1.75,0.15-3.49,0.22-5.24,0.33c-2.49,0.16-4.98,0.43-7.47,0.57c-3.08,0.18-6.15,0.67-9.25,0.6c-0.85-0.02-1.71,0.13-2.56,0.19
		c-2.56,0.19-5.13,0.39-7.69,0.57c-0.56,0.04-1.12,0.02-1.68,0.06c-0.62,0.04-1.23,0.07-1.82,0.41c-0.65,0.38-1.46,0.11-2.02-0.5
		c-0.36-0.39-0.58-0.87-0.78-1.35c-0.68-1.61-1.48-3.17-2.23-4.75c-0.71-1.48-1.28-3.01-1.97-4.5c-1.33-2.87-2.6-5.77-3.97-8.62
		c-1.3-2.72-2.43-5.51-3.71-8.24c-1.41-3-2.64-6.07-4-9.09c-0.84-1.85-1.71-3.72-2.35-5.67c-0.04-0.14-0.12-0.26-0.22-0.48
		c-0.63,0.39-1.26,0.98-1.93,0.19c-0.54-0.64-0.03-1.09,0.33-1.58c-0.32-0.24-0.83-0.28-0.95-0.67c-0.19-0.61-0.55-0.65-1.09-0.55
		c-1.17,0.23-2.19-0.23-3.16-0.83c-2.6-1.6-5.21-3.19-7.81-4.78c-3.43-2.1-6.86-4.2-10.29-6.3c-0.54-0.33-1.08-0.67-1.54-1.11
		c-1.13-1.08-1.4-2.35-0.78-3.77c0.22-0.51,0.52-0.99,0.88-1.42c0.94-1.1,2.1-1.5,3.5-1.06c0.57,0.18,1.1,0.46,1.61,0.77
		c6.13,3.75,12.26,7.51,18.39,11.26c0.94,0.58,1.77,1.25,2.16,2.33c0.1,0.29,0.27,0.4,0.53,0.5c0.81,0.34,1.38,0.88,1.36,1.84
		c-0.01,0.32,0.13,0.56,0.34,0.79c0.47,0.51,0.64,1.09,0.31,1.75c-0.23,0.45-0.09,0.8,0.14,1.23c1.31,2.38,2.64,4.75,3.7,7.26
		c0.64,1.51,1.52,2.91,2.18,4.4c0.97,2.18,2.21,4.21,3.05,6.45c0.29,0.76,0.71,1.47,1.07,2.21c1.4,2.88,2.74,5.78,4.08,8.69
		c1.37,2.97,2.85,5.9,4.16,8.9c0.36,0.82,0.79,1.6,1.15,2.42c0.18,0.39,0.39,0.55,0.85,0.5c3.41-0.39,6.83-0.62,10.25-0.79
		c3.61-0.18,7.21-0.54,10.82-0.72c2.72-0.14,5.43-0.4,8.14-0.61c0.82-0.06,1.64-0.11,2.46-0.07c1.64,0.08,3.24-0.23,5.03-0.34
		c-0.6-0.59-1.2-0.74-1.71-0.98c-2.23-1.05-4.1-2.58-5.56-4.52c-1.45-1.92-2.73-3.96-3.3-6.37c-0.24-1-0.64-1.97-0.86-2.99
		c-0.73-3.4-0.81-6.8-0.21-10.22c0.4-2.29,1.14-4.48,2.2-6.54c1.23-2.39,2.76-4.58,4.88-6.29c1.43-1.15,3.05-1.95,4.82-2.45
		c0.18-0.05,0.4-0.11,0.55-0.04c1.32,0.56,2.21-0.38,3.1-0.98c1.92-1.28,3.58-2.86,4.82-4.84c0.16-0.25,0.31-0.49,0.41-0.79
		c0.3-0.87,1.15-1.21,1.96-0.84c0.86,0.4,1.16,1.2,0.71,2.04c-0.28,0.52-0.61,1.03-0.99,1.48c-1.53,1.77-3.08,3.52-5.37,4.37
		c-0.87,0.32-1.7,0.75-2.61,0.97c-0.46,0.11-0.83,0.26-0.89,0.83c-0.04,0.37-0.36,0.53-0.71,0.61c-2.29,0.53-4.19,1.81-5.71,3.49
		c-1.94,2.14-3.2,4.73-3.82,7.58c-0.47,2.12-0.67,4.27-0.66,6.45c0.01,1.7,0.35,3.35,0.78,4.96c0.45,1.71,1.01,3.41,1.93,4.94
		c0.82,1.37,1.67,2.76,2.85,3.82c2.15,1.93,4.58,3.29,7.64,3.08c1.77-0.12,3.31-0.83,4.71-1.81c2.34-1.65,3.91-3.97,5.01-6.54
		c1.65-3.84,2.15-7.85,1.56-12.04c-0.45-3.21-1.5-6.19-2.77-9.13c-0.16-0.36-0.35-0.7,0-1.01c0.37-0.33,0.76-0.19,1.11,0.08
		c0.9,0.69,1.49,1.65,2.05,2.6c1.7,2.91,2.47,6.13,2.82,9.43c0.26,2.41-0.01,4.84-0.43,7.24c-0.58,3.3-2.03,6.21-3.83,8.96
		c-0.71,1.09-1.76,1.92-2.75,2.77c-0.13,0.11-0.34,0.17-0.3,0.5c1.15,0.08,2.31,0.18,3.48,0.25c5.92,0.34,11.84,0.79,17.74,1.33
		c4.57,0.42,9.14,0.79,13.71,1.21c3.57,0.32,7.13,0.63,10.69,1.05c1.34,0.16,2.51-0.27,3.67-0.73c2.01-0.81,4.09-1.36,6.15-2
		c1.81-0.56,3.59-1.24,5.33-1.98c3.15-1.36,6.36-2.53,9.55-3.77c2.56-1,5.11-2.05,7.7-2.97c2.11-0.76,4.08-1.82,6.18-2.57
		c1.18-0.42,2.38-0.81,3.53-1.33c0.01-0.38-0.27-0.56-0.44-0.78c-0.95-1.25-1.8-2.56-2.58-3.93c-1.86-3.27-3.7-6.55-5.55-9.83
		c-0.25-0.45-0.5-0.92-0.68-1.41c-0.55-1.55-0.18-2.86,1.12-3.89c0.41-0.32,0.86-0.59,1.31-0.84c9.59-5.43,19.18-10.85,28.77-16.26
		c0.55-0.31,1.11-0.59,1.72-0.79c1.32-0.42,2.42-0.09,3.38,0.85c0.4,0.4,0.71,0.87,0.98,1.36c1.98,3.5,3.97,7,5.92,10.52
		c1.65,2.99,2.88,6.13,3.33,9.54c0.74,5.56-0.7,10.46-4.56,14.52c-4.14,4.36-9.24,7.13-15.17,8.2c-3.46,0.63-6.83,0.09-10.03-1.38
		c-0.55-0.25-1-0.44-1.67-0.19c-1.09,0.41-2-0.36-1.94-1.54c0.02-0.36-0.09-0.55-0.33-0.75c-0.46-0.38-0.91-0.76-1.37-1.14
		c-2.01,1.01-4.1,1.77-6.19,2.53c-3.75,1.35-7.45,2.81-11.13,4.32c-3.61,1.47-7.27,2.85-10.91,4.25c-3.06,1.17-6.12,2.31-9.2,3.43
		c-1.15,0.42-2.34,0.75-3.51,1.12c-0.32,0.1-0.69,0.15-0.93,0.35c-0.74,0.61-1.59,0.55-2.45,0.47c-5.28-0.49-10.55-0.97-15.83-1.47
		c-4.94-0.47-9.88-0.95-14.81-1.45c-2.26-0.23-4.52-0.5-6.78-0.76c-0.33-0.04-0.66-0.07-1.21-0.13c0.57,0.51,0.97,0.91,1.41,1.26
		c1.38,1.08,2.51,2.4,3.68,3.69c2,2.2,3.73,4.6,5.4,7.05c1,1.47,1.92,2.99,2.8,4.53c0.91,1.58,1.8,3.17,2.57,4.81
		c1.11,2.39,2.44,4.68,3.35,7.17c0.57,1.57,1.36,3.06,1.97,4.62c0.68,1.72,1.24,3.49,1.91,5.21c1.01,2.6,1.64,5.31,2.49,7.96
		c0.46,1.43,0.98,2.87,1.08,4.42c0.05,0.85,0.44,1.64,0.62,2.48c0.3,1.45,0.65,2.89,0.95,4.29c0.31,0.18,0.4-0.04,0.5-0.16
		c1.01-1.31,2.35-2.27,3.51-3.42c1.84-1.83,3.69-3.64,5.59-5.41c1.65-1.54,3.32-3.07,4.95-4.63c1.36-1.3,2.82-2.51,4.11-3.9
		c0.93-1,2.09-1.77,3.04-2.74c1.15-1.18,2.48-2.15,3.6-3.34c1.34-1.42,2.99-2.51,4.26-4.02c0.45-0.53,1.08-0.9,1.6-1.37
		c1.59-1.44,3.19-2.89,4.75-4.37c0.39-0.37,0.68-0.38,1.18-0.19c2.02,0.78,3.79,1.98,5.64,3.09c2.32,1.4,4.48,3.04,6.79,4.44
		c1.43,0.87,2.77,1.88,4.15,2.83c2.12,1.45,4.23,2.91,6.36,4.34c1.45,0.97,2.83,2.05,4.29,2.99c2.38,1.52,4.56,3.31,6.96,4.8
		c1.19,0.74,2.29,1.64,3.45,2.46c1.21,0.85,2.43,1.68,3.65,2.52c1.8-3.09,4.72-4.98,7.32-7.19c-0.27-0.13-0.51-0.02-0.75,0.05
		c-1.98,0.52-3.95,1.05-5.94,1.53c-3.04,0.72-5.36-1.59-4.7-4.66c0.25-1.15,1.05-1.86,2.08-2.32c0.85-0.38,1.77-0.55,2.67-0.78
		c6.54-1.71,13.09-3.43,19.63-5.13c3.75-0.97,4.91,1.5,4.98,3.91c0.04,1.24-0.54,2.13-1.59,2.75c-0.65,0.38-1.37,0.58-2.08,0.77
		c-4.39,1.14-8.78,2.28-13.16,3.44c-0.3,0.08-0.67,0.05-0.9,0.35c0.17,0.26,0.39,0.14,0.6,0.12c0.48-0.04,0.96-0.11,1.45-0.12
		c1.29-0.02,2.3,0.4,3.08,1.57c0.82,1.24,1.19,2.45,0.73,3.89c-0.21,0.65-0.63,1.17-1,1.72c-0.18,0.27-0.4,0.52-0.7,0.91
		c0.86,0.05,1.55-0.19,2.24-0.31c3.82-0.65,7.62-1.34,11.44-1.96c2.1-0.34,3.47,0.67,3.88,2.74c0.07,0.37,0.15,0.74,0.16,1.11
		c0.07,1.7-0.9,2.88-2.71,3.32c-0.4,0.1-0.81,0.12-1.2,0.3c-0.05,0.26,0.2,0.26,0.33,0.32c3.37,1.69,5.13,4.53,5.87,8.12
		c0.31,1.51,0.39,3.04,0.14,4.56c-0.45,2.72-1.98,4.69-4.36,6.04c-1.87,1.07-3.91,1.61-6.01,1.98c-4.51,0.8-9.01,1.6-13.52,2.38
		c-0.48,0.08-0.96,0.14-1.44,0.15c-1.79,0.06-2.89-0.75-3.37-2.48c-0.13-0.46-0.21-0.95-0.24-1.43c-0.11-1.61,0.68-2.79,2.26-3.31
		c1.45-0.48,2.99-0.61,4.48-0.89c3.73-0.69,7.47-1.34,11.21-2.01c0.88-0.16,1.72-0.47,2.51-0.9c1.27-0.69,2-1.74,2.22-3.17
		c0.49-3.12-1.57-6.55-4.55-7.54c-1.31-0.43-2.66-0.45-3.99-0.23c-4.33,0.72-8.65,1.5-12.97,2.28c-2.61,0.47-4.21-0.64-4.57-3.26
		c-0.08-0.55-0.13-1.13,0.04-1.67c0.26-0.83-0.21-1.4-0.75-1.79c-2.14-1.54-4.33-3.01-6.51-4.5c-2.64-1.8-5.28-3.6-7.91-5.41
		c-1.16-0.8-2.24-1.74-3.44-2.47c-2.45-1.49-4.61-3.38-7.06-4.87c-1.17-0.72-2.18-1.68-3.33-2.43c-2.16-1.4-4.13-3.04-6.25-4.49
		c-1.34-0.91-2.65-1.91-3.85-3.02c-0.67-0.62-0.92-0.63-1.59,0.05c-1.73,1.75-3.57,3.38-5.39,5.01c-1.99,1.78-3.95,3.59-5.95,5.36
		c-2.36,2.09-4.65,4.26-7.04,6.32c-2.46,2.13-4.89,4.3-7.33,6.46c-1.89,1.67-3.78,3.35-5.69,4.99c-1.65,1.41-3.15,3.02-5.04,4.15
		c-0.34,0.21-0.58,0.46-0.69,0.93c-0.17,0.75-0.75,1.15-1.56,1.18c-3.32,0.1-6.62,0.44-9.93,0.66c-4.65,0.3-9.29,0.73-13.96,0.76
		c-2.61,0.01-5.22,0.29-7.83,0.17c-0.54-0.03-0.78,0.19-0.93,0.69c-0.93,3.14-1.87,6.27-2.85,9.39c-0.58,1.84-1.25,3.66-1.85,5.5
		c-0.77,2.36-1.49,4.74-2.27,7.1c-0.57,1.73-1.22,3.43-1.8,5.16c-0.81,2.39-1.59,4.79-2.37,7.2c-1.04,3.22-2.19,6.4-3.3,9.6
		c-0.13,0.38-0.31,0.76-0.53,1.1c-0.27,0.42-0.66,0.68-1.22,0.64c-0.48-0.04-0.97,0.01-1.45-0.03c-4.64-0.37-9.29-0.69-13.92-1.13
		c-6.08-0.58-12.16-1.26-18.24-1.91c-3.41-0.37-6.81-0.78-10.22-1.16C94.03,231.76,93.66,231.74,93.05,231.68z M144.5,147.77
		c-0.11,0.68-0.06,1.24,0.01,1.8c0.14,1.07,0.35,2.14,0.43,3.21c0.14,1.83,0.49,3.62,0.86,5.4c0.52,2.51,0.89,5.05,1.58,7.54
		c0.53,1.93,1.09,3.85,1.47,5.84c0.31,1.67,0.99,3.26,1.52,4.88c1.18,3.6,2.39,7.19,3.54,10.81c0.18,0.56,0.45,0.69,0.96,0.67
		c0.97-0.04,1.91-0.31,2.87-0.43c2.48-0.3,4.96-0.57,7.44-0.83c3.08-0.32,6.17-0.41,9.25-0.7c3.33-0.31,6.68-0.58,10.02-0.76
		c0.58-0.03,0.76-0.2,0.7-0.81c-0.17-1.68-0.63-3.29-1.01-4.91c-0.47-2.02-0.85-4.07-1.52-6.05c-0.71-2.07-1.29-4.18-1.93-6.28
		c-0.5-1.64-1.27-3.18-1.78-4.81c-0.89-2.85-2.29-5.48-3.4-8.24c-0.5-1.24-1.26-2.36-1.8-3.58c-0.99-2.25-2.3-4.32-3.52-6.43
		c-1.49-2.57-3.21-4.99-4.96-7.4c-1.3-1.78-2.82-3.36-4.3-4.97c-0.55-0.59-1.27-1.02-1.85-1.59c-1.73-1.7-3.71-2.94-6.1-3.48
		c-1.27-0.29-2.54-0.27-3.69,0.34c-1.51,0.8-2.46,2.2-3.06,3.72c-0.42,1.05-0.79,2.16-1.04,3.29c-0.75,3.45-0.99,6.93-0.87,10.45
		C144.34,145.58,144.44,146.74,144.5,147.77z M254.71,111.04c0.26,0,0.53,0.03,0.78,0c5.35-0.72,9.83-3.14,13.37-7.17
		c2.01-2.29,2.79-5.04,2.48-8.1c-0.23-2.26-0.97-4.36-2.04-6.34c-1.22-2.26-2.5-4.49-3.76-6.73c-0.37-0.66-0.39-0.66-1.08-0.28
		c-8.07,4.55-16.14,9.11-24.21,13.67c-0.65,0.37-0.65,0.38-0.25,1.1c1.17,2.08,2.34,4.15,3.53,6.22c0.63,1.1,1.38,2.12,2.17,3.12
		c0.54,0.69,1.09,1.07,2.05,0.99c1.33-0.12,2.09,0.54,2.18,1.84c0.04,0.59,0.31,0.77,0.75,0.94
		C251.98,110.8,253.32,111.05,254.71,111.04z M93.06,239.56c-0.02-0.17-0.05-0.5-0.11-0.83c-0.37-2.04-1.27-3.87-2.37-5.6
		c-0.47-0.75-1.05-1.36-1.99-1.64c-0.99-0.29-1.27-0.2-1.19,0.78c0.2,2.35,1,4.47,2.52,6.3c0.26,0.31,0.56,0.61,0.76,0.96
		c0.28,0.48,0.71,0.75,1.18,0.97C92.79,240.95,93.06,240.77,93.06,239.56z M268.4,178.96c0.32,0.18,0.52,0.29,0.7,0.41
		c1.64,1.01,2.99,0.86,4.48-0.35c0.79-0.64,1.4-1.43,2.09-2.15c0.5-0.52,1.06-1.04,1.33-1.77c0.34-0.93-0.15-1.61-1.12-1.46
		c-0.73,0.11-1.43,0.33-2.02,0.86c-0.66,0.6-1.38,1.12-2.15,1.58C270.49,176.83,269.48,177.84,268.4,178.96z"/>
	<path fill="#090807" d="M131.01,36.44c-0.22,0.07-0.28,0.19-0.33,0.34c-0.9,3.3-3.11,5.47-6.13,6.83
		c-5.84,2.64-11.91,1.03-15.65-4.2c-2.38-3.33-3.62-7.08-3.58-11.2c0.05-5.02,2.84-10.33,9.87-12.08c3.26-0.81,6.37-0.42,9.14,1.76
		c0.04-0.48-0.19-0.84-0.29-1.23c-0.52-1.96,0.21-3.47,2.07-4.27c0.48-0.21,0.99-0.32,1.51-0.4c1.32-0.18,2.33,0.3,3.05,1.41
		c0.3,0.47,0.5,0.99,0.68,1.52c2.48,7.14,4.97,14.27,7.45,21.41c0.79,2.27,1.28,4.59,1.13,7.01c-0.22,3.51-1.84,6.24-4.57,8.35
		c-1.87,1.45-4,2.42-6.25,3.15c-3.1,1.01-6.26,1.64-9.54,1.55c-0.79-0.02-1.57-0.12-2.33-0.27c-1.6-0.31-2.55-1.8-2.21-3.46
		c0.33-1.62,1.7-2.42,3.22-2.22c3.67,0.5,7.19-0.17,10.55-1.69c0.2-0.09,0.4-0.21,0.59-0.32c2.78-1.62,3.88-4.05,3.23-7.19
		c-0.11-0.55-0.27-1.09-0.44-1.62C131.79,38.59,131.39,37.51,131.01,36.44z M128.43,30.38c-0.11-2.13-0.9-4.66-2.61-6.83
		c-1.92-2.42-4.43-3.29-7.45-2.5c-3.45,0.89-5.56,3.56-5.51,7.06c0.04,2.72,0.89,5.2,2.54,7.37c2.03,2.68,5,3.56,8.13,2.47
		C126.7,36.85,128.44,34.4,128.43,30.38z"/>
	<path fill="#090807" d="M279.2,236.01c-3.72-2.15-5.38-5.32-5.65-9.29c-0.5-7.23,4.16-12.07,10.66-13.48
		c3.36-0.73,6.73-0.75,10.03,0.4c5.1,1.78,8.25,6.1,8.42,11.5c0.06,1.97-0.23,3.86-1.07,5.66c-0.67,1.43-1.61,2.64-3.13,3.71
		c0.7,0,1.13-0.01,1.56,0c1.86,0.06,3.07,1.14,3.34,2.97c0.06,0.4,0.11,0.82,0.09,1.22c-0.11,1.9-1.07,2.88-2.95,3.2
		c-1.44,0.24-2.9,0.23-4.35,0.35c-3.75,0.31-7.52,0.5-11.27,0.76c-2.57,0.18-5.13,0.39-7.7,0.58c-2.59,0.19-5.15,0.05-7.6-0.88
		c-3.62-1.36-5.79-4.07-6.96-7.66c-0.59-1.82-0.88-3.69-0.96-5.6c-0.14-3.41,0.02-6.79,1.13-10.06c0.24-0.7,0.47-1.41,0.87-2.05
		c0.68-1.08,1.62-1.47,2.98-1.24c1.13,0.2,2.1,1.08,2.35,2.13c0.15,0.62-0.03,1.19-0.26,1.74c-1.11,2.59-1.45,5.31-1.41,8.09
		c0.02,1.38,0.2,2.76,0.69,4.06c0.98,2.62,2.92,3.97,5.67,4.15C275.45,236.41,277.23,236.24,279.2,236.01z M289.24,220.35
		c-2.67,0.02-4.78,0.37-6.66,1.59c-2.34,1.52-3.35,3.73-3.17,6.47c0.19,2.77,1.45,4.87,4.03,6.1c0.92,0.44,1.89,0.68,2.89,0.78
		c2.49,0.26,4.92-0.01,7.14-1.25c2.69-1.5,3.81-3.88,3.56-6.91c-0.24-2.93-1.68-5.03-4.45-6.14
		C291.35,220.52,290.07,220.32,289.24,220.35z"/>
	<path fill="#090807" d="M181.99,21.4c1.23-0.6,2.23-1.06,3.33-1.28c2.06-0.41,4.08-0.26,6.04,0.46c4.34,1.6,7.2,4.52,8.14,9.14
		c0.47,2.31,0.3,4.6-0.33,6.86c-1.02,3.64-2.65,6.96-5.38,9.65c-2.69,2.64-5.89,4.06-9.7,3.67c-3.84-0.4-7.04-2.06-9.26-5.33
		c-0.8-1.18-1.23-2.51-1.49-4.07c-0.31,0.58-0.54,1.04-0.8,1.48c-0.99,1.68-2.35,2.15-4.18,1.48c-1.31-0.49-2.41-1.2-2.69-2.71
		c-0.16-0.88,0.13-1.7,0.47-2.49c0.93-2.11,1.87-4.22,2.82-6.32c3.8-8.49,7.61-16.98,11.42-25.47c0.21-0.47,0.43-0.95,0.7-1.39
		c0.81-1.3,1.94-1.8,3.43-1.49c0.96,0.2,1.83,0.63,2.55,1.31c0.92,0.85,1.09,1.92,0.8,3.08c-0.12,0.47-0.32,0.91-0.52,1.35
		c-1.62,3.64-3.25,7.27-4.87,10.91C182.36,20.53,182.24,20.83,181.99,21.4z M192.29,32.51c0.1-5.05-3.86-8.44-8.22-7.73
		c-2,0.33-3.48,1.44-4.67,3c-1.37,1.8-2.28,3.83-2.85,6.02c-0.38,1.46-0.45,2.93-0.1,4.42c0.99,4.31,7.37,7.36,11.63,3.14
		C190.69,38.78,191.97,35.52,192.29,32.51z"/>
	<path fill="#090807" d="M270.26,125.12c5.01,0.04,8.75,1.89,11.43,5.68c2.34,3.32,3.55,7.03,3.33,11.13
		c-0.23,4.17-2.13,7.48-5.45,9.94c-3.13,2.32-6.7,3.58-10.58,3.7c-4.52,0.13-8.31-1.58-11.07-5.21c-2.39-3.14-3.65-6.72-3.68-10.69
		c-0.04-4.22,1.64-7.69,4.88-10.34C262.43,126.6,266.33,125.28,270.26,125.12z M260.27,141.02c0,4.23,3.21,7.42,7.42,7.2
		c3.19-0.17,6.13-1.21,8.66-3.19c2.1-1.64,3.03-3.84,2.57-6.51c-0.61-3.52-3.1-5.92-6.35-6c-4-0.1-7.55,1.18-10.45,3.97
		C260.86,137.69,260.25,139.25,260.27,141.02z"/>
	<path fill="#090807" d="M51.18,155.49c0.03,0.07,0.03,0.16,0.08,0.2c3.07,2.63,3.72,5.95,2.8,9.73c-0.67,2.74-1.98,5.07-4.3,6.73
		c-3.07,2.19-6.32,2.17-9.59,0.47c-1.53-0.8-2.43-2.16-2.93-3.79c-0.52-1.7-0.62-3.44-0.57-5.2c0.1-3.1,0.56-6.16,1.14-9.2
		c0.02-0.11,0.05-0.22,0.07-0.33c0.17-0.98,0.15-0.98-0.8-1.14c-0.77-0.13-1.54-0.25-2.33-0.22c-1.73,0.05-2.98,0.83-3.7,2.42
		c-0.63,1.38-0.85,2.85-0.95,4.34c-0.13,1.95,0.07,3.87,0.53,5.77c0.09,0.36,0.17,0.73,0.2,1.1c0.13,1.22-0.44,2.11-1.57,2.52
		c-1.76,0.63-3.65-0.33-4.11-2.17c-0.76-2.99-0.88-6.04-0.55-9.11c0.22-2.01,0.69-3.96,1.5-5.82c1.35-3.09,3.53-5.22,6.93-5.89
		c1.78-0.35,3.57-0.3,5.34,0.01c4.8,0.84,9.59,1.73,14.38,2.61c0.69,0.13,1.38,0.28,2.02,0.62c1.01,0.54,1.56,1.35,1.57,2.51
		c0,0.19,0,0.37-0.01,0.56c-0.16,2.51-1.72,3.77-4.21,3.4C51.82,155.55,51.52,155.33,51.18,155.49z M41.3,161.69
		c-0.03,0.75,0.03,1.49,0.2,2.22c0.32,1.33,1.16,2.13,2.47,2.44c1.78,0.42,3.61-0.29,4.53-1.89c1.34-2.33,1.48-4.74,0.04-7.09
		c-1.31-2.14-3.35-3.06-5.76-3.37c-0.46-0.06-0.5,0.22-0.55,0.5C41.83,156.88,41.37,159.26,41.3,161.69z"/>
	<path fill="#090807" d="M44.5,102.24c-0.99-1.6-1.62-3.1-1.74-4.78c-0.29-4.12,1.05-7.65,4.05-10.46c2.1-1.97,4.74-2.19,7.45-1.81
		c1.59,0.22,3.1,0.75,4.58,1.37c4.35,1.83,8.7,3.65,13.06,5.47c0.1,0.04,0.21,0.08,0.31,0.13c2.91,1.32,3.35,4.62,0.86,6.69
		c-1.03,0.86-2.21,0.84-3.38,0.38c-2.11-0.83-4.2-1.71-6.29-2.58c-2.33-0.97-4.66-1.95-6.99-2.93c-1-0.42-2.02-0.76-3.09-0.92
		c-1.73-0.27-3.21,0.23-4.22,1.69c-2.71,3.94-1.62,8.25,2.14,10.37c1.07,0.61,2.23,1.02,3.36,1.5c3.22,1.37,6.44,2.71,9.66,4.05
		c0.59,0.24,1.16,0.51,1.64,0.93c0.93,0.8,1.28,1.8,1.02,3.01c-0.03,0.15-0.07,0.29-0.11,0.43c-0.67,2.2-2.05,3.98-5.27,2.64
		c-6.93-2.89-13.85-5.79-20.78-8.69c-2.71-1.13-3.06-3.1-1.82-5.43c0.84-1.58,2.08-2.1,3.83-1.62
		C43.28,101.8,43.76,101.99,44.5,102.24z"/>
	<path fill="#090807" d="M74.35,50.04c-0.7-5.25,2.12-10.39,6.95-12.62c2.21-1.02,4.46-1.01,6.72-0.13
		c1.76,0.69,3.31,1.73,4.66,3.02c3.79,3.6,7.53,7.24,11.29,10.87c0.32,0.31,0.6,0.67,0.84,1.04c0.69,1.08,0.69,2.18,0.02,3.27
		c-0.41,0.68-0.95,1.24-1.6,1.7c-1.16,0.81-2.47,0.84-3.65,0.05c-0.46-0.31-0.88-0.69-1.28-1.08c-3.17-3.06-6.33-6.12-9.5-9.18
		c-0.81-0.78-1.64-1.52-2.63-2.07c-1.94-1.08-3.69-0.92-5.36,0.53c-1.27,1.1-2.23,2.41-2.58,4.09c-0.48,2.29,0.25,4.26,1.71,6.01
		c0.38,0.46,0.82,0.87,1.25,1.28c2.87,2.78,5.74,5.55,8.61,8.33c0.48,0.47,0.95,0.94,1.28,1.54c0.41,0.76,0.54,1.56,0.24,2.37
		c-0.49,1.31-1.39,2.28-2.68,2.85c-0.8,0.35-1.6,0.28-2.38-0.07c-0.62-0.28-1.12-0.73-1.61-1.2c-5.29-5.11-10.57-10.22-15.86-15.32
		c-0.43-0.42-0.84-0.85-1.14-1.37c-0.59-1.02-0.6-2.05-0.01-3.08c0.4-0.69,0.93-1.26,1.58-1.71c1.16-0.8,2.37-0.84,3.55-0.07
		c0.49,0.32,0.94,0.72,1.41,1.08c0.03,0.09,0.05,0.23,0.18,0.15C74.46,50.26,74.41,50.13,74.35,50.04z"/>
	<path fill="#090807" d="M35.88,206.59c-4.18-0.06-7.79-0.91-10.84-3.41c-4.05-3.31-5.64-7.66-5.17-12.8
		c0.21-2.32,0.84-4.54,2.16-6.51c2.13-3.16,5.19-4.81,8.9-5.38c1.63-0.25,3.26-0.3,4.9-0.05c1.31,0.2,1.91,0.78,2.04,2.09
		c0.04,0.37,0.01,0.75-0.03,1.12c-0.42,4.19-0.86,8.38-1.28,12.57c-0.15,1.45-0.3,2.89-0.45,4.34c-0.09,0.84-0.13,0.91,0.89,0.83
		c0.97-0.08,1.92-0.24,2.83-0.6c2.68-1.07,4.04-3.21,4.56-5.92c0.58-3.02,0.43-6.01-0.79-8.89c-0.14-0.34-0.25-0.7-0.32-1.06
		c-0.4-2.08,1.28-3.57,3.31-2.97c1,0.3,1.65,0.97,2.11,1.87c0.74,1.44,1.19,2.97,1.44,4.56c0.63,3.95,0.32,7.81-1.23,11.52
		c-2.01,4.82-5.63,7.66-10.78,8.52C37.28,206.57,36.42,206.55,35.88,206.59z M33.13,184.58c-4.78-0.47-7.87,2.01-8.15,6.43
		c-0.25,3.96,2.87,7.67,6.69,7.84C32.15,194.12,32.64,189.38,33.13,184.58z"/>
	<path fill="#090807" d="M211.41,58.94c5.77-2.81,11.36-5.52,16.94-8.24c0.7-0.34,1.41-0.63,2.18-0.83
		c1.58-0.42,3.74,1.12,4.16,2.54c0.33,1.14-0.04,2.13-0.81,2.98c-0.43,0.47-0.99,0.79-1.57,1.05c-10.89,4.97-21.78,9.95-32.67,14.91
		c-0.91,0.42-1.87,0.8-2.9,0.66c-0.91-0.12-1.67-0.61-2.33-1.24c-1.47-1.42-1.41-3.34,0.16-4.68c0.49-0.42,1.06-0.68,1.64-0.94
		c2.04-0.9,4.07-1.83,6.13-2.68c0.73-0.3,1.09-0.76,1.33-1.48c2.52-7.64,5.06-15.26,7.59-22.89c0.21-0.64,0.44-1.27,0.85-1.81
		c1.02-1.36,2.61-1.75,4.04-0.87c2.47,1.51,2.74,2.98,1.94,5.16c-2.07,5.7-4.15,11.4-6.22,17.1
		C211.73,58.03,211.61,58.38,211.41,58.94z"/>
	<path fill="#090807" d="M25.67,238.39c-2.31-0.1-4.62-0.21-6.93-0.3c-3.54-0.15-7.08-0.28-10.62-0.44
		c-2.42-0.12-3.57-1.37-3.56-3.79c0-0.49,0.06-0.96,0.19-1.43c0.4-1.44,1.39-2.27,2.87-2.4c0.3-0.02,0.6-0.03,0.89-0.02
		c5.11,0.2,10.21,0.4,15.32,0.59c5.33,0.21,10.66,0.4,15.99,0.63c0.52,0.02,0.65-0.17,0.66-0.62c0.01-0.48,0.06-0.97,0.08-1.45
		c0.18-4.77,0.36-9.54,0.54-14.32c0.02-0.6,0.07-1.19,0.18-1.78c0.25-1.4,1.2-2.22,2.62-2.3c0.33-0.02,0.67-0.02,1.01,0.01
		c1.67,0.13,2.67,1.1,2.82,2.76c0.04,0.41,0.02,0.82,0,1.23c-0.28,6.9-0.56,13.79-0.86,20.69c-0.11,2.46-1.45,3.67-3.99,3.63
		c-1.31-0.02-2.61-0.08-3.91-0.13C34.54,238.76,30.11,238.57,25.67,238.39C25.67,238.38,25.67,238.38,25.67,238.39z"/>
	<path fill="#090807" d="M36.54,127.71c-1.55-1.5-2.43-3.14-2.75-5.08c-0.29-1.79-0.19-3.57,0.22-5.33
		c0.26-1.14,1.01-1.69,2.16-1.74c0.67-0.03,1.34,0.01,1.99,0.22c1.35,0.44,2.01,1.3,2.06,2.72c0.04,1.02-0.24,1.99-0.39,2.99
		c-0.14,0.97-0.18,1.94-0.04,2.9c0.36,2.45,1.73,4.14,4.01,5.09c1.65,0.68,3.41,1.03,5.12,1.53c2.67,0.78,5.37,1.49,8.04,2.25
		c2.81,0.8,3.68,2.55,2.65,5.27c-0.72,1.92-2.16,2.73-4.16,2.2c-4.59-1.22-9.17-2.51-13.75-3.77c-2.79-0.77-5.57-1.57-8.37-2.33
		c-2.78-0.75-3.52-2.58-2.5-5.23c0.63-1.64,1.88-2.28,3.65-2.02C35.11,127.45,35.69,127.75,36.54,127.71z"/>
	<path fill="#090807" d="M301.24,154.89c1.12-0.02,2.06,0.39,2.72,1.29c1.06,1.44,1.48,3.06,1.19,4.85
		c-0.02,0.15-0.05,0.29-0.1,0.44c-0.68,2.17-4.85,3.36-6.49,1.4c-1.19-1.41-1.69-3.08-1.41-4.89
		C297.46,156.07,299.08,154.91,301.24,154.89z"/>
	<path fill="#090807" d="M43.74,63.36c0.23-1.61,1.13-3.21,2.81-4.33c0.52-0.34,1.1-0.41,1.71-0.39c3.11,0.13,4.88,2.99,3.55,5.78
		c-0.67,1.41-1.56,2.63-3.19,3.07C46.37,68.11,43.71,66.07,43.74,63.36z"/>
	<path fill="#090807" d="M154.18,103.8c0.01,0.88-0.55,1.55-1.29,1.66c-0.65,0.1-1.28-0.31-1.46-1.1c-0.26-1.12-0.43-2.27-0.62-3.4
		c-0.21-1.25-0.65-2.43-1.11-3.6c-0.38-1-0.73-2-1.45-2.84c-0.35-0.4-0.07-0.88,0.47-0.94c0.46-0.05,0.85,0.14,1.24,0.39
		c1.05,0.68,1.63,1.72,2.13,2.79c0.96,2.06,1.6,4.23,2,6.46C154.14,103.45,154.16,103.67,154.18,103.8z"/>
	<path fill="#090807" d="M146.41,103.61c0,0.66-0.51,1.34-1.06,1.44c-0.7,0.13-1.14-0.14-1.48-0.88c-0.35-0.77-0.26-1.61-0.43-2.41
		c-0.13-0.62-0.25-1.23-0.41-1.85c-0.34-1.36-0.51-2.77-1.38-3.95c-0.18-0.25-0.2-0.57,0.09-0.8c0.31-0.25,0.57-0.07,0.79,0.13
		c0.82,0.72,1.48,1.61,1.95,2.57c0.79,1.63,1.44,3.33,1.81,5.12C146.34,103.2,146.37,103.42,146.41,103.61z"/>
	<path fill="#090807" d="M151,88c-0.42,0-0.74-0.04-0.84-0.38c-0.1-0.33,0.22-0.4,0.41-0.57c0.52-0.47,1.14-0.78,1.64-1.3
		c0.74-0.78,1.25-1.62,1.52-2.65c0.2-0.76,0.77-1.09,1.41-0.94c0.63,0.15,1.13,0.97,0.98,1.67c-0.14,0.63-0.52,1.13-0.96,1.61
		c-0.99,1.08-2.04,2.05-3.51,2.4C151.4,87.89,151.15,87.96,151,88z"/>
	<path fill="#F16A6C" d="M144.5,147.77c-0.06-1.03-0.16-2.18-0.2-3.34c-0.12-3.52,0.12-7,0.87-10.45c0.25-1.13,0.62-2.24,1.04-3.29
		c0.6-1.52,1.54-2.92,3.06-3.72c1.15-0.61,2.42-0.63,3.69-0.34c2.39,0.54,4.37,1.78,6.1,3.48c0.58,0.57,1.3,1,1.85,1.59
		c1.48,1.61,3,3.18,4.3,4.97c1.75,2.4,3.47,4.83,4.96,7.4c1.23,2.11,2.54,4.18,3.52,6.43c0.53,1.22,1.3,2.34,1.8,3.58
		c1.11,2.76,2.51,5.39,3.4,8.24c0.51,1.63,1.28,3.17,1.78,4.81c0.64,2.09,1.23,4.21,1.93,6.28c0.68,1.98,1.05,4.03,1.52,6.05
		c0.38,1.63,0.84,3.24,1.01,4.91c0.06,0.61-0.12,0.78-0.7,0.81c-3.35,0.18-6.69,0.45-10.02,0.76c-3.08,0.28-6.17,0.38-9.25,0.7
		c-2.48,0.26-4.96,0.53-7.44,0.83c-0.96,0.12-1.9,0.39-2.87,0.43c-0.51,0.02-0.78-0.1-0.96-0.67c-1.15-3.61-2.36-7.2-3.54-10.81
		c-0.53-1.62-1.21-3.22-1.52-4.88c-0.37-1.98-0.93-3.91-1.47-5.84c-0.69-2.49-1.06-5.03-1.58-7.54c-0.37-1.78-0.72-3.58-0.86-5.4
		c-0.08-1.07-0.29-2.14-0.43-3.21C144.44,149.01,144.39,148.45,144.5,147.77z"/>
	<path fill="#FFFFFF" d="M254.71,111.04c-1.39,0-2.74-0.25-4.03-0.75c-0.44-0.17-0.71-0.34-0.75-0.94
		c-0.09-1.29-0.85-1.96-2.18-1.84c-0.96,0.09-1.51-0.3-2.05-0.99c-0.78-1-1.54-2.02-2.17-3.12c-1.18-2.07-2.36-4.14-3.53-6.22
		c-0.4-0.71-0.4-0.73,0.25-1.1c8.07-4.56,16.14-9.12,24.21-13.67c0.69-0.39,0.71-0.39,1.08,0.28c1.26,2.24,2.54,4.47,3.76,6.73
		c1.07,1.98,1.81,4.07,2.04,6.34c0.31,3.06-0.47,5.81-2.48,8.1c-3.55,4.04-8.02,6.45-13.37,7.17
		C255.24,111.07,254.97,111.04,254.71,111.04z"/>
	<path fill="#F16A6C" d="M93.06,239.56c0,1.21-0.27,1.39-1.19,0.94c-0.47-0.23-0.9-0.49-1.18-0.97c-0.2-0.35-0.5-0.64-0.76-0.96
		c-1.52-1.83-2.32-3.96-2.52-6.3c-0.08-0.98,0.2-1.06,1.19-0.78c0.94,0.27,1.51,0.89,1.99,1.64c1.1,1.73,2,3.56,2.37,5.6
		C93.01,239.06,93.04,239.39,93.06,239.56z"/>
	<path fill="#F16A6C" d="M268.4,178.96c1.08-1.11,2.09-2.12,3.32-2.87c0.77-0.46,1.49-0.99,2.15-1.58c0.59-0.53,1.28-0.75,2.02-0.86
		c0.97-0.15,1.45,0.53,1.12,1.46c-0.26,0.73-0.83,1.25-1.33,1.77c-0.69,0.72-1.3,1.51-2.09,2.15c-1.49,1.21-2.83,1.36-4.48,0.35
		C268.92,179.25,268.72,179.14,268.4,178.96z"/>
	<path fill="#FFFFFF" d="M128.43,30.38c0,4.02-1.73,6.47-4.91,7.57c-3.14,1.09-6.1,0.21-8.13-2.47c-1.64-2.17-2.5-4.65-2.54-7.37
		c-0.05-3.5,2.06-6.17,5.51-7.06c3.02-0.78,5.53,0.09,7.45,2.5C127.53,25.72,128.32,28.26,128.43,30.38z"/>
	<path fill="#FFFFFF" d="M289.24,220.35c0.83-0.03,2.11,0.17,3.34,0.66c2.77,1.11,4.21,3.21,4.45,6.14
		c0.25,3.02-0.88,5.41-3.56,6.91c-2.22,1.24-4.65,1.5-7.14,1.25c-1-0.1-1.97-0.35-2.89-0.78c-2.57-1.23-3.84-3.33-4.03-6.1
		c-0.18-2.74,0.83-4.95,3.17-6.47C284.46,220.72,286.57,220.37,289.24,220.35z"/>
	<path fill="#FFFFFF" d="M192.29,32.51c-0.32,3-1.6,6.27-4.21,8.85c-4.26,4.22-10.64,1.17-11.63-3.14c-0.34-1.49-0.28-2.96,0.1-4.42
		c0.57-2.18,1.49-4.21,2.85-6.02c1.18-1.56,2.66-2.67,4.67-3C188.43,24.07,192.39,27.46,192.29,32.51z"/>
	<path fill="#FFFFFF" d="M260.27,141.02c-0.02-1.77,0.59-3.33,1.85-4.54c2.91-2.79,6.45-4.08,10.45-3.97c3.26,0.08,5.75,2.48,6.35,6
		c0.46,2.67-0.47,4.87-2.57,6.51c-2.53,1.98-5.48,3.02-8.66,3.19C263.47,148.44,260.26,145.25,260.27,141.02z"/>
	<path fill="#FFFFFF" d="M41.3,161.69c0.07-2.43,0.53-4.81,0.94-7.19c0.05-0.28,0.09-0.56,0.55-0.5c2.4,0.31,4.45,1.23,5.76,3.37
		c1.44,2.36,1.3,4.76-0.04,7.09c-0.92,1.6-2.74,2.31-4.53,1.89c-1.31-0.31-2.16-1.11-2.47-2.44
		C41.33,163.18,41.27,162.44,41.3,161.69z"/>
	<path fill="#FFFFFF" d="M74.35,50.04c0.06,0.09,0.11,0.22,0.01,0.28c-0.13,0.08-0.15-0.06-0.18-0.15
		C74.23,50.12,74.29,50.08,74.35,50.04z"/>
	<path fill="#FFFFFF" d="M33.13,184.58c-0.49,4.79-0.98,9.53-1.46,14.27c-3.81-0.17-6.94-3.88-6.69-7.84
		C25.27,186.6,28.35,184.11,33.13,184.58z"/>
</g>
</svg>
