<?xml version="1.0" encoding="utf-8"?>
<!-- Generator: Adobe Illustrator 25.2.0, SVG Export Plug-In . SVG Version: 6.00 Build 0)  -->
<svg version="1.1" id="Capa_1" xmlns="http://www.w3.org/2000/svg" xmlns:xlink="http://www.w3.org/1999/xlink" x="0px" y="0px"
	 viewBox="0 0 490.67 490.67" style="enable-background:new 0 0 490.67 490.67;" xml:space="preserve">
<style type="text/css">
	.st0{fill:#16434B;}
	.st1{fill:#FAFAFA;}
</style>
<path class="st0" d="M245.33,0C109.84,0,0,109.84,0,245.33s109.84,245.33,245.33,245.33s245.33-109.84,245.33-245.33
	C490.51,109.9,380.76,0.15,245.33,0z"/>
<path class="st1" d="M254.49,111.85c-3.43-5.05-10.3-6.36-15.35-2.93c-1.15,0.78-2.15,1.78-2.93,2.93l-128,213.33
	c-3.03,5.05-1.39,11.6,3.67,14.63c1.65,0.99,3.54,1.51,5.46,1.52h256c5.89,0,10.67-4.77,10.67-10.66c0-1.93-0.52-3.83-1.52-5.48
	L254.49,111.85z"/>
</svg>
